<?xml version="1.0" encoding="iso-8859-1"?>
<!-- Generator: Adobe Illustrator 16.0.0, SVG Export Plug-In . SVG Version: 6.00 Build 0)  -->
<!DOCTYPE svg PUBLIC "-//W3C//DTD SVG 1.1//EN" "http://www.w3.org/Graphics/SVG/1.1/DTD/svg11.dtd">
<svg version="1.1" id="Capa_1" xmlns="http://www.w3.org/2000/svg" xmlns:xlink="http://www.w3.org/1999/xlink" x="0px" y="0px"
	 width="446.604px" height="446.603px" viewBox="0 0 446.604 446.603" style="enable-background:new 0 0 446.604 446.603;"
	 xml:space="preserve">
<g>
	<g>
		<path d="M317.16,0H129.443c-16.709,0-30.305,13.596-30.305,30.305v385.987c0,16.707,13.596,30.311,30.305,30.311H317.16
			c16.712,0,30.306-13.604,30.306-30.311V30.305C347.466,13.596,333.872,0,317.16,0z M335.619,416.292
			c0,10.182-8.282,18.459-18.459,18.459H129.443c-10.176,0-18.456-8.277-18.456-18.459V30.305c0-10.168,8.279-18.456,18.456-18.456
			H317.16c10.177,0,18.459,8.287,18.459,18.456V416.292L335.619,416.292z"/>
		<path d="M320.929,49.279H125.675c-1.635,0-2.963,1.328-2.963,2.963v338.863c0,1.635,1.328,2.96,2.963,2.96h195.254
			c1.635,0,2.965-1.325,2.965-2.96V52.243C323.894,50.607,322.563,49.279,320.929,49.279z M310.066,388.145H136.537
			c-4.362,0-7.901-3.539-7.901-7.901V63.104c0-4.359,3.539-7.898,7.901-7.898h173.529c4.362,0,7.901,3.539,7.901,7.898v317.14
			C317.968,384.606,314.429,388.145,310.066,388.145z"/>
		<path d="M206.641,31.237h33.324c1.636,0,2.961-1.328,2.961-2.963c0-1.635-1.325-2.963-2.961-2.963h-33.324
			c-1.635,0-2.963,1.328-2.963,2.963C203.678,29.91,205.006,31.237,206.641,31.237z"/>
		<path d="M240.366,400.84h-34.129c-7.005,0-12.71,5.702-12.71,12.7v2.041c0,7.008,5.705,12.71,12.71,12.71h34.129
			c7.008,0,12.71-5.713,12.71-12.71v-2.041C253.076,406.542,247.374,400.84,240.366,400.84z M247.15,415.582
			c0,3.742-3.047,6.784-6.784,6.784h-34.129c-3.743,0-6.784-3.047-6.784-6.784v-2.041c0-3.737,3.049-6.779,6.784-6.779h34.129
			c3.742,0,6.784,3.052,6.784,6.779V415.582z"/>
		<path d="M249.339,280.045c14.767,0,26.776-12.015,26.776-26.771v-83.116c0-3.506-2.854-6.367-6.368-6.367c0,0-2.782,0-6.215,0
			c-3.438,0-6.221-3.54-6.221-7.899v-9.566c0-8.168-6.643-14.82-14.812-14.82h-38.402c-8.175,0-14.82,6.652-14.82,14.82
			c0,1.627,1.335,2.963,2.963,2.963c1.635,0,2.971-1.336,2.971-2.963c0-4.908,3.989-8.889,8.886-8.889h38.402
			c4.905,0,8.887,3.991,8.887,8.889v9.566c0,4.36-3.54,7.899-7.901,7.899h-66.641c-3.509,0-6.368,2.854-6.368,6.367v83.116
			c0,14.768,12.007,26.771,26.773,26.771H249.339z M176.417,170.158c0-0.243,0.188-0.434,0.434-0.434h92.896
			c0.244,0,0.442,0.19,0.442,0.434v83.116c0,11.497-9.354,20.851-20.851,20.851h-52.082c-11.497,0-20.84-9.354-20.84-20.851V170.158
			L176.417,170.158z"/>
		<path d="M223.294,241.194c10.634,0,19.286-8.647,19.286-19.276c0-10.633-8.652-19.275-19.286-19.275
			c-10.625,0-19.268,8.643-19.268,19.275C204.026,232.546,212.668,241.194,223.294,241.194z M223.294,208.568
			c7.363,0,13.35,5.989,13.35,13.35c0,7.363-5.986,13.345-13.35,13.345c-7.353,0-13.342-5.986-13.342-13.345
			C209.952,214.557,215.941,208.568,223.294,208.568z"/>
	</g>
</g>
<g>
</g>
<g>
</g>
<g>
</g>
<g>
</g>
<g>
</g>
<g>
</g>
<g>
</g>
<g>
</g>
<g>
</g>
<g>
</g>
<g>
</g>
<g>
</g>
<g>
</g>
<g>
</g>
<g>
</g>
</svg>
