<?xml version="1.0" encoding="iso-8859-1"?>
<!-- Generator: Adobe Illustrator 19.0.0, SVG Export Plug-In . SVG Version: 6.00 Build 0)  -->
<svg version="1.1" id="Layer_1" xmlns="http://www.w3.org/2000/svg" xmlns:xlink="http://www.w3.org/1999/xlink" x="0px" y="0px"
	 viewBox="0 0 512 512" style="enable-background:new 0 0 512 512;" xml:space="preserve">
<g>
	<g>
		<g>
			<path d="M369.403,355.447h-9.237c-23.688,0-42.959,19.271-42.959,42.958v19.697v37.897v13.044
				c0,14.759-12.006,26.765-26.764,26.765c-14.759,0-26.766-12.006-26.766-26.765v-13.044v-34.191h6.909
				c12.354,0,22.405-10.051,22.405-22.405v-87.148h60.951c11.607,0,21.05-9.443,21.05-21.05V146.85c0-4.472-3.624-8.096-8.096-8.096
				h-10.102V8.096c0-4.472-3.624-8.096-8.096-8.096H160.794c-4.472,0-8.096,3.624-8.096,8.096v130.657h-10.102
				c-4.472,0-8.096,3.624-8.096,8.096v144.354c0,11.607,9.443,21.05,21.05,21.05h63.457v87.148
				c0,12.354,10.051,22.405,22.405,22.405h6.072v34.191v13.044c0,23.686,19.271,42.958,42.959,42.958
				c23.686,0,42.957-19.271,42.957-42.958v-13.044v-37.897v-19.697c0-14.759,12.007-26.765,26.766-26.765h9.237
				c4.472,0,8.096-3.624,8.096-8.096C377.5,359.071,373.875,355.447,369.403,355.447z M155.549,296.062
				c-2.678,0-4.857-2.18-4.857-4.858V154.946h156.26c4.472,0,8.096-3.624,8.096-8.096c0-4.472-3.624-8.096-8.096-8.096H168.891
				V16.193h171.71v122.561h-9.36c-4.472,0-8.096,3.624-8.096,8.096c0,4.472,3.624,8.096,8.096,8.096h27.559v136.258
				c0,2.678-2.18,4.858-4.858,4.858h-69.047h-57.791H155.549z M241.413,405.615c-3.425,0-6.213-2.787-6.213-6.213v-87.148h41.599
				v87.148c0,3.425-2.787,6.213-6.213,6.213H241.413z"/>
			<path d="M239.099,34.956h-42.473c-4.472,0-8.096,3.624-8.096,8.096v72.327c0,4.472,3.624,8.096,8.096,8.096h42.473
				c4.472,0,8.096-3.624,8.096-8.096V43.053C247.196,38.58,243.572,34.956,239.099,34.956z M231.003,107.283h-26.28V51.149h26.28
				V107.283z"/>
			<path d="M323.468,115.379V43.053c0-4.472-3.624-8.096-8.096-8.096h-42.473c-4.472,0-8.096,3.624-8.096,8.096v72.327
				c0,4.472,3.624,8.096,8.096,8.096h42.473C319.844,123.476,323.468,119.851,323.468,115.379z M307.275,107.283h-26.28V51.149
				h26.28V107.283z"/>
		</g>
	</g>
</g>
<g>
</g>
<g>
</g>
<g>
</g>
<g>
</g>
<g>
</g>
<g>
</g>
<g>
</g>
<g>
</g>
<g>
</g>
<g>
</g>
<g>
</g>
<g>
</g>
<g>
</g>
<g>
</g>
<g>
</g>
</svg>
